<mxfile host="Electron" agent="Mozilla/5.0 (Windows NT 10.0; Win64; x64) AppleWebKit/537.36 (KHTML, like Gecko) draw.io/28.1.2 Chrome/138.0.7204.243 Electron/37.4.0 Safari/537.36" version="28.1.2">
  <diagram name="Page-1" id="97916047-d0de-89f5-080d-49f4d83e522f">
    <mxGraphModel dx="2171" dy="1447" grid="1" gridSize="10" guides="1" tooltips="1" connect="1" arrows="1" fold="1" page="1" pageScale="1.5" pageWidth="1169" pageHeight="827" background="none" math="0" shadow="0">
      <root>
        <mxCell id="0" />
        <mxCell id="1" parent="0" />
        <mxCell id="k4CSAVVTnt-oedxpcEqQ-55" value="&lt;b&gt;&lt;font style=&quot;font-size: 34px;&quot;&gt;monaco-language&lt;span style=&quot;background-color: initial;&quot;&gt;client&lt;/span&gt;&lt;/font&gt;&lt;/b&gt;" style="rounded=1;whiteSpace=wrap;html=1;verticalAlign=middle;fontSize=24;fillColor=#dae8fc;strokeColor=#6c8ebf;strokeWidth=1;shadow=0;glass=0;" parent="1" vertex="1">
          <mxGeometry x="225" y="320" width="665" height="140" as="geometry" />
        </mxCell>
        <mxCell id="k4CSAVVTnt-oedxpcEqQ-57" value="&lt;div&gt;&lt;font style=&quot;font-size: 24px;&quot;&gt;vscode api&lt;/font&gt;&lt;/div&gt;&lt;div&gt;&lt;font style=&quot;font-size: 24px;&quot;&gt;definition&lt;/font&gt;&lt;/div&gt;" style="ellipse;shape=cloud;whiteSpace=wrap;html=1;fillColor=#f8cecc;strokeColor=#CF6C61;gradientColor=none;sketch=1;curveFitting=1;jiggle=2;" parent="1" vertex="1">
          <mxGeometry x="530" y="910" width="610" height="280" as="geometry" />
        </mxCell>
        <mxCell id="k4CSAVVTnt-oedxpcEqQ-66" value="&lt;font style=&quot;color: rgb(107, 107, 107); font-size: 30px;&quot;&gt;&lt;b style=&quot;&quot;&gt;VSCode&lt;/b&gt;&lt;/font&gt;&lt;div&gt;&lt;font style=&quot;color: rgb(107, 107, 107); font-size: 30px;&quot;&gt;&lt;b style=&quot;&quot;&gt;(Web or Desktop)&lt;/b&gt;&lt;/font&gt;&lt;/div&gt;" style="shape=ext;double=1;rounded=1;whiteSpace=wrap;html=1;fontSize=24;fillColor=#fa6800;strokeColor=#C73500;fontColor=default;shadow=0;opacity=40;glass=0;sketch=1;curveFitting=1;jiggle=2;" parent="1" vertex="1">
          <mxGeometry x="877" y="683.78" width="390" height="212.72" as="geometry" />
        </mxCell>
        <mxCell id="k4CSAVVTnt-oedxpcEqQ-75" value="" style="shape=flexArrow;endArrow=classic;html=1;rounded=1;strokeWidth=2;endSize=11.260115606936417;startSize=11;startWidth=20;endWidth=49.6551724137931;arcSize=20;flowAnimation=0;shadow=0;sourcePerimeterSpacing=7;width=28.323699421965316;dashed=1;dashPattern=1 1;fillColor=default;" parent="1" edge="1">
          <mxGeometry width="50" height="50" relative="1" as="geometry">
            <mxPoint x="960" y="1083.5" as="sourcePoint" />
            <mxPoint x="1030" y="910" as="targetPoint" />
          </mxGeometry>
        </mxCell>
        <mxCell id="_uGb1KgNCc7sdFown7Vx-5" value="Realization" style="edgeLabel;html=1;align=center;verticalAlign=middle;resizable=0;points=[];fontSize=20;rotation=0;" parent="k4CSAVVTnt-oedxpcEqQ-75" vertex="1" connectable="0">
          <mxGeometry x="0.3427" y="-2" relative="1" as="geometry">
            <mxPoint x="92" y="4" as="offset" />
          </mxGeometry>
        </mxCell>
        <mxCell id="k4CSAVVTnt-oedxpcEqQ-97" value="&lt;font style=&quot;font-size: 34px;&quot;&gt;&lt;b&gt;@typefox/monaco-editor-react&lt;/b&gt;&lt;/font&gt;" style="rounded=1;whiteSpace=wrap;html=1;fillColor=#866EFF;strokeColor=#3700CC;fontColor=light-dark(#000000, #121212);verticalAlign=middle;opacity=50;movable=1;resizable=1;rotatable=1;deletable=1;editable=1;locked=0;connectable=1;" parent="1" vertex="1">
          <mxGeometry x="225" y="160" width="665" height="160" as="geometry" />
        </mxCell>
        <mxCell id="nS1JZoDu9XlfnFd3QL9L-4" value="&lt;div&gt;Monolithic&lt;/div&gt;&lt;div&gt;block&lt;/div&gt;" style="ellipse;shape=cloud;whiteSpace=wrap;html=1;fontSize=24;verticalAlign=middle;" parent="1" vertex="1">
          <mxGeometry x="1130" y="610" width="220" height="180" as="geometry" />
        </mxCell>
        <mxCell id="nS1JZoDu9XlfnFd3QL9L-15" style="edgeStyle=orthogonalEdgeStyle;rounded=1;orthogonalLoop=1;jettySize=auto;html=1;entryX=0.25;entryY=1;entryDx=0;entryDy=0;strokeWidth=4;curved=0;" parent="1" source="k4CSAVVTnt-oedxpcEqQ-65" target="k4CSAVVTnt-oedxpcEqQ-55" edge="1">
          <mxGeometry relative="1" as="geometry" />
        </mxCell>
        <mxCell id="nS1JZoDu9XlfnFd3QL9L-17" value="&lt;font style=&quot;font-size: 24px;&quot;&gt;Supplies services&lt;/font&gt;" style="edgeLabel;html=1;align=center;verticalAlign=middle;resizable=0;points=[];" parent="nS1JZoDu9XlfnFd3QL9L-15" vertex="1" connectable="0">
          <mxGeometry x="-0.3959" y="2" relative="1" as="geometry">
            <mxPoint x="-29" y="-30" as="offset" />
          </mxGeometry>
        </mxCell>
        <mxCell id="k4CSAVVTnt-oedxpcEqQ-65" value="&lt;div&gt;&lt;span style=&quot;background-color: initial; color: light-dark(rgb(255, 255, 255), rgb(18, 18, 18));&quot;&gt;&lt;b&gt;@codingame/monaco-vscode-api&lt;/b&gt;&lt;/span&gt;&lt;/div&gt;" style="shape=ext;double=1;rounded=1;whiteSpace=wrap;html=1;fontSize=24;fillColor=#008a00;strokeColor=none;fontColor=#ffffff;verticalAlign=top;container=0;glass=0;" parent="1" vertex="1">
          <mxGeometry x="330" y="576" width="480" height="320.5" as="geometry" />
        </mxCell>
        <mxCell id="k4CSAVVTnt-oedxpcEqQ-81" value="" style="rounded=1;whiteSpace=wrap;html=1;fillColor=#f0a30a;strokeColor=#BD7000;container=0;fontColor=#000000;" parent="1" vertex="1">
          <mxGeometry x="400" y="635.9951851851852" width="70" height="73.44444444444444" as="geometry" />
        </mxCell>
        <mxCell id="k4CSAVVTnt-oedxpcEqQ-82" value="" style="rounded=1;whiteSpace=wrap;html=1;fillColor=#f0a30a;strokeColor=#BD7000;container=0;fontColor=#000000;" parent="1" vertex="1">
          <mxGeometry x="490" y="635.9951851851852" width="70" height="73.44444444444444" as="geometry" />
        </mxCell>
        <mxCell id="k4CSAVVTnt-oedxpcEqQ-83" value="" style="rounded=1;whiteSpace=wrap;html=1;fillColor=#f0a30a;strokeColor=#BD7000;container=0;fontColor=#000000;" parent="1" vertex="1">
          <mxGeometry x="580" y="635.9951851851852" width="70" height="73.44444444444444" as="geometry" />
        </mxCell>
        <mxCell id="k4CSAVVTnt-oedxpcEqQ-84" value="" style="rounded=1;whiteSpace=wrap;html=1;fillColor=#f0a30a;strokeColor=#BD7000;container=0;fontColor=#000000;" parent="1" vertex="1">
          <mxGeometry x="670" y="635.9951851851852" width="70" height="73.44444444444444" as="geometry" />
        </mxCell>
        <mxCell id="k4CSAVVTnt-oedxpcEqQ-85" value="" style="rounded=1;whiteSpace=wrap;html=1;fillColor=#f0a30a;strokeColor=#BD7000;container=0;fontColor=#000000;" parent="1" vertex="1">
          <mxGeometry x="670" y="721.6803703703704" width="70" height="73.44444444444444" as="geometry" />
        </mxCell>
        <mxCell id="k4CSAVVTnt-oedxpcEqQ-86" value="" style="rounded=1;whiteSpace=wrap;html=1;fillColor=#f0a30a;strokeColor=#BD7000;container=0;fontColor=#000000;" parent="1" vertex="1">
          <mxGeometry x="490" y="721.6803703703704" width="70" height="73.44444444444444" as="geometry" />
        </mxCell>
        <mxCell id="k4CSAVVTnt-oedxpcEqQ-87" value="" style="rounded=1;whiteSpace=wrap;html=1;fillColor=#f0a30a;strokeColor=#BD7000;container=0;fontColor=#000000;" parent="1" vertex="1">
          <mxGeometry x="580" y="721.6803703703704" width="70" height="73.44444444444444" as="geometry" />
        </mxCell>
        <mxCell id="k4CSAVVTnt-oedxpcEqQ-88" value="" style="rounded=1;whiteSpace=wrap;html=1;fillColor=#fa6800;strokeColor=#C73500;fontColor=#000000;container=0;" parent="1" vertex="1">
          <mxGeometry x="400" y="721.6803703703704" width="70" height="73.44444444444444" as="geometry" />
        </mxCell>
        <mxCell id="nS1JZoDu9XlfnFd3QL9L-5" value="&lt;div style=&quot;color: rgb(255, 255, 255); font-size: 24px;&quot;&gt;&lt;span style=&quot;background-color: initial;&quot;&gt;services / extensions / languages&lt;/span&gt;&lt;br&gt;&lt;/div&gt;&lt;div style=&quot;color: rgb(255, 255, 255); font-size: 24px;&quot;&gt;&lt;span style=&quot;background-color: initial;&quot;&gt;&lt;b&gt;monaco-vscode-editor-api&lt;/b&gt;&lt;/span&gt;&lt;/div&gt;" style="text;html=1;align=center;verticalAlign=middle;whiteSpace=wrap;rounded=0;" parent="1" vertex="1">
          <mxGeometry x="380" y="806" width="380" height="60" as="geometry" />
        </mxCell>
        <mxCell id="k4CSAVVTnt-oedxpcEqQ-108" value="&lt;div&gt;&lt;span style=&quot;background-color: transparent; color: light-dark(rgb(0, 0, 0), rgb(255, 255, 255));&quot;&gt;Modular&lt;/span&gt;&lt;/div&gt;&lt;div&gt;VSCode Web&lt;br&gt;&lt;/div&gt;" style="ellipse;shape=cloud;whiteSpace=wrap;html=1;fontSize=24;verticalAlign=middle;" parent="1" vertex="1">
          <mxGeometry x="190" y="595.36" width="240" height="154.72" as="geometry" />
        </mxCell>
        <mxCell id="_uGb1KgNCc7sdFown7Vx-8" value="" style="shape=flexArrow;endArrow=classic;html=1;rounded=1;strokeWidth=2;endSize=11.260115606936417;startSize=11;startWidth=20;endWidth=49.6551724137931;arcSize=20;flowAnimation=0;shadow=0;sourcePerimeterSpacing=7;width=28.323699421965316;dashed=1;dashPattern=1 1;fillColor=default;" parent="1" edge="1">
          <mxGeometry width="50" height="50" relative="1" as="geometry">
            <mxPoint x="732" y="1093.5" as="sourcePoint" />
            <mxPoint x="660" y="910" as="targetPoint" />
          </mxGeometry>
        </mxCell>
        <mxCell id="_uGb1KgNCc7sdFown7Vx-9" value="Realization" style="edgeLabel;html=1;align=center;verticalAlign=middle;resizable=0;points=[];fontSize=20;" parent="_uGb1KgNCc7sdFown7Vx-8" vertex="1" connectable="0">
          <mxGeometry x="0.3427" y="-2" relative="1" as="geometry">
            <mxPoint x="-118" y="-13" as="offset" />
          </mxGeometry>
        </mxCell>
        <mxCell id="nS1JZoDu9XlfnFd3QL9L-25" value="" style="endArrow=none;dashed=1;html=1;rounded=0;strokeWidth=4;dashPattern=1 2;" parent="1" edge="1">
          <mxGeometry width="50" height="50" relative="1" as="geometry">
            <mxPoint x="842" y="990" as="sourcePoint" />
            <mxPoint x="842" y="410" as="targetPoint" />
          </mxGeometry>
        </mxCell>
        <mxCell id="nS1JZoDu9XlfnFd3QL9L-26" value="Requires at runtime" style="edgeLabel;html=1;align=center;verticalAlign=middle;resizable=0;points=[];fontSize=24;" parent="nS1JZoDu9XlfnFd3QL9L-25" vertex="1" connectable="0">
          <mxGeometry x="0.5571" y="2" relative="1" as="geometry">
            <mxPoint x="120" y="15" as="offset" />
          </mxGeometry>
        </mxCell>
      </root>
    </mxGraphModel>
  </diagram>
</mxfile>
